<mxfile host="app.diagrams.net" agent="Mozilla/5.0 (Windows NT 10.0; Win64; x64) AppleWebKit/537.36 (KHTML, like Gecko) Chrome/131.0.0.0 Safari/537.36" version="26.0.4">
  <diagram name="Page-1" id="gE9KKSIc5OLpUEababD1">
    <mxGraphModel dx="803" dy="434" grid="1" gridSize="10" guides="1" tooltips="1" connect="1" arrows="1" fold="1" page="1" pageScale="1" pageWidth="827" pageHeight="1169" math="0" shadow="0">
      <root>
        <mxCell id="0" />
        <mxCell id="1" parent="0" />
        <mxCell id="j5tTH3l1ZXtegNSYz3yT-9" style="edgeStyle=orthogonalEdgeStyle;rounded=0;orthogonalLoop=1;jettySize=auto;html=1;entryX=0;entryY=0.5;entryDx=0;entryDy=0;exitX=1;exitY=0.5;exitDx=0;exitDy=0;" edge="1" parent="1" source="j5tTH3l1ZXtegNSYz3yT-19" target="j5tTH3l1ZXtegNSYz3yT-8">
          <mxGeometry relative="1" as="geometry">
            <mxPoint x="160" y="135" as="sourcePoint" />
          </mxGeometry>
        </mxCell>
        <mxCell id="j5tTH3l1ZXtegNSYz3yT-10" value="No" style="edgeLabel;html=1;align=center;verticalAlign=middle;resizable=0;points=[];" vertex="1" connectable="0" parent="j5tTH3l1ZXtegNSYz3yT-9">
          <mxGeometry x="-0.2143" relative="1" as="geometry">
            <mxPoint as="offset" />
          </mxGeometry>
        </mxCell>
        <mxCell id="j5tTH3l1ZXtegNSYz3yT-5" value="Remove Item" style="rounded=1;whiteSpace=wrap;html=1;" vertex="1" parent="1">
          <mxGeometry x="330" y="260" width="100" height="50" as="geometry" />
        </mxCell>
        <mxCell id="j5tTH3l1ZXtegNSYz3yT-29" style="edgeStyle=orthogonalEdgeStyle;rounded=0;orthogonalLoop=1;jettySize=auto;html=1;entryX=0;entryY=0.5;entryDx=0;entryDy=0;" edge="1" parent="1" source="j5tTH3l1ZXtegNSYz3yT-7" target="j5tTH3l1ZXtegNSYz3yT-27">
          <mxGeometry relative="1" as="geometry" />
        </mxCell>
        <mxCell id="j5tTH3l1ZXtegNSYz3yT-7" value="Modify Item" style="rounded=1;whiteSpace=wrap;html=1;" vertex="1" parent="1">
          <mxGeometry x="330" y="160" width="100" height="50" as="geometry" />
        </mxCell>
        <mxCell id="j5tTH3l1ZXtegNSYz3yT-8" value="Add Item" style="rounded=1;whiteSpace=wrap;html=1;" vertex="1" parent="1">
          <mxGeometry x="330" y="60" width="100" height="50" as="geometry" />
        </mxCell>
        <mxCell id="j5tTH3l1ZXtegNSYz3yT-21" style="edgeStyle=orthogonalEdgeStyle;rounded=0;orthogonalLoop=1;jettySize=auto;html=1;entryX=0;entryY=0.5;entryDx=0;entryDy=0;" edge="1" parent="1" source="j5tTH3l1ZXtegNSYz3yT-19" target="j5tTH3l1ZXtegNSYz3yT-20">
          <mxGeometry relative="1" as="geometry" />
        </mxCell>
        <mxCell id="j5tTH3l1ZXtegNSYz3yT-26" value="Yes" style="edgeLabel;html=1;align=center;verticalAlign=middle;resizable=0;points=[];" vertex="1" connectable="0" parent="j5tTH3l1ZXtegNSYz3yT-21">
          <mxGeometry x="-0.1697" y="-2" relative="1" as="geometry">
            <mxPoint as="offset" />
          </mxGeometry>
        </mxCell>
        <mxCell id="j5tTH3l1ZXtegNSYz3yT-19" value="Is the Item in the database?" style="rounded=0;whiteSpace=wrap;html=1;" vertex="1" parent="1">
          <mxGeometry x="80" y="110" width="100" height="50" as="geometry" />
        </mxCell>
        <mxCell id="j5tTH3l1ZXtegNSYz3yT-22" style="edgeStyle=orthogonalEdgeStyle;rounded=0;orthogonalLoop=1;jettySize=auto;html=1;entryX=0;entryY=0.5;entryDx=0;entryDy=0;" edge="1" parent="1" source="j5tTH3l1ZXtegNSYz3yT-20" target="j5tTH3l1ZXtegNSYz3yT-7">
          <mxGeometry relative="1" as="geometry" />
        </mxCell>
        <mxCell id="j5tTH3l1ZXtegNSYz3yT-24" value="No" style="edgeLabel;html=1;align=center;verticalAlign=middle;resizable=0;points=[];" vertex="1" connectable="0" parent="j5tTH3l1ZXtegNSYz3yT-22">
          <mxGeometry x="0.0821" relative="1" as="geometry">
            <mxPoint as="offset" />
          </mxGeometry>
        </mxCell>
        <mxCell id="j5tTH3l1ZXtegNSYz3yT-23" style="edgeStyle=orthogonalEdgeStyle;rounded=0;orthogonalLoop=1;jettySize=auto;html=1;entryX=0;entryY=0.5;entryDx=0;entryDy=0;" edge="1" parent="1" source="j5tTH3l1ZXtegNSYz3yT-20" target="j5tTH3l1ZXtegNSYz3yT-5">
          <mxGeometry relative="1" as="geometry" />
        </mxCell>
        <mxCell id="j5tTH3l1ZXtegNSYz3yT-25" value="Yes" style="edgeLabel;html=1;align=center;verticalAlign=middle;resizable=0;points=[];" vertex="1" connectable="0" parent="j5tTH3l1ZXtegNSYz3yT-23">
          <mxGeometry x="0.0579" y="1" relative="1" as="geometry">
            <mxPoint as="offset" />
          </mxGeometry>
        </mxCell>
        <mxCell id="j5tTH3l1ZXtegNSYz3yT-20" value="Do you want to remove it?" style="rounded=0;whiteSpace=wrap;html=1;" vertex="1" parent="1">
          <mxGeometry x="180" y="210" width="100" height="50" as="geometry" />
        </mxCell>
        <mxCell id="j5tTH3l1ZXtegNSYz3yT-31" style="edgeStyle=orthogonalEdgeStyle;rounded=0;orthogonalLoop=1;jettySize=auto;html=1;entryX=0;entryY=0.5;entryDx=0;entryDy=0;" edge="1" parent="1" source="j5tTH3l1ZXtegNSYz3yT-27" target="j5tTH3l1ZXtegNSYz3yT-30">
          <mxGeometry relative="1" as="geometry" />
        </mxCell>
        <mxCell id="j5tTH3l1ZXtegNSYz3yT-33" value="Yes" style="edgeLabel;html=1;align=center;verticalAlign=middle;resizable=0;points=[];" vertex="1" connectable="0" parent="j5tTH3l1ZXtegNSYz3yT-31">
          <mxGeometry x="-0.3581" y="2" relative="1" as="geometry">
            <mxPoint as="offset" />
          </mxGeometry>
        </mxCell>
        <mxCell id="j5tTH3l1ZXtegNSYz3yT-32" style="edgeStyle=orthogonalEdgeStyle;rounded=0;orthogonalLoop=1;jettySize=auto;html=1;entryX=0;entryY=0.5;entryDx=0;entryDy=0;" edge="1" parent="1" source="j5tTH3l1ZXtegNSYz3yT-27" target="j5tTH3l1ZXtegNSYz3yT-28">
          <mxGeometry relative="1" as="geometry" />
        </mxCell>
        <mxCell id="j5tTH3l1ZXtegNSYz3yT-34" value="No" style="edgeLabel;html=1;align=center;verticalAlign=middle;resizable=0;points=[];" vertex="1" connectable="0" parent="j5tTH3l1ZXtegNSYz3yT-32">
          <mxGeometry x="-0.5857" y="2" relative="1" as="geometry">
            <mxPoint as="offset" />
          </mxGeometry>
        </mxCell>
        <mxCell id="j5tTH3l1ZXtegNSYz3yT-27" value="Do you want to link/unlink it to/from other items?" style="rounded=0;whiteSpace=wrap;html=1;" vertex="1" parent="1">
          <mxGeometry x="480" y="155" width="100" height="60" as="geometry" />
        </mxCell>
        <mxCell id="j5tTH3l1ZXtegNSYz3yT-36" style="edgeStyle=orthogonalEdgeStyle;rounded=0;orthogonalLoop=1;jettySize=auto;html=1;entryX=0;entryY=0.5;entryDx=0;entryDy=0;" edge="1" parent="1" source="j5tTH3l1ZXtegNSYz3yT-28" target="j5tTH3l1ZXtegNSYz3yT-35">
          <mxGeometry relative="1" as="geometry" />
        </mxCell>
        <mxCell id="j5tTH3l1ZXtegNSYz3yT-37" value="Yes" style="edgeLabel;html=1;align=center;verticalAlign=middle;resizable=0;points=[];" vertex="1" connectable="0" parent="j5tTH3l1ZXtegNSYz3yT-36">
          <mxGeometry x="-0.2126" y="1" relative="1" as="geometry">
            <mxPoint as="offset" />
          </mxGeometry>
        </mxCell>
        <mxCell id="j5tTH3l1ZXtegNSYz3yT-41" style="edgeStyle=orthogonalEdgeStyle;rounded=0;orthogonalLoop=1;jettySize=auto;html=1;entryX=0.5;entryY=0;entryDx=0;entryDy=0;" edge="1" parent="1" source="j5tTH3l1ZXtegNSYz3yT-28" target="j5tTH3l1ZXtegNSYz3yT-40">
          <mxGeometry relative="1" as="geometry" />
        </mxCell>
        <mxCell id="j5tTH3l1ZXtegNSYz3yT-28" value="Do you want to update item status/values?" style="rounded=0;whiteSpace=wrap;html=1;" vertex="1" parent="1">
          <mxGeometry x="580" y="260" width="100" height="50" as="geometry" />
        </mxCell>
        <mxCell id="j5tTH3l1ZXtegNSYz3yT-30" value="Link Items" style="rounded=1;whiteSpace=wrap;html=1;" vertex="1" parent="1">
          <mxGeometry x="660" y="160" width="100" height="50" as="geometry" />
        </mxCell>
        <mxCell id="j5tTH3l1ZXtegNSYz3yT-38" style="edgeStyle=orthogonalEdgeStyle;rounded=0;orthogonalLoop=1;jettySize=auto;html=1;entryX=0.5;entryY=0;entryDx=0;entryDy=0;exitX=0.5;exitY=0;exitDx=0;exitDy=0;" edge="1" parent="1" source="j5tTH3l1ZXtegNSYz3yT-35" target="j5tTH3l1ZXtegNSYz3yT-28">
          <mxGeometry relative="1" as="geometry" />
        </mxCell>
        <mxCell id="j5tTH3l1ZXtegNSYz3yT-35" value="Update Values" style="rounded=1;whiteSpace=wrap;html=1;" vertex="1" parent="1">
          <mxGeometry x="750" y="260" width="100" height="50" as="geometry" />
        </mxCell>
        <mxCell id="j5tTH3l1ZXtegNSYz3yT-40" value="Exit" style="rounded=1;whiteSpace=wrap;html=1;" vertex="1" parent="1">
          <mxGeometry x="580" y="360" width="100" height="50" as="geometry" />
        </mxCell>
      </root>
    </mxGraphModel>
  </diagram>
</mxfile>
